# xmcd
#
# Track frame offsets: 
#        150
#        14203
#        30601
#        33196
#        48187
#        59597
#        72248
#        83261
#        96929
#        112794
#        138925
#        153378
#        171053
#        176834
#        200202
#        219385
#        244350
#        260256
#
# Disc length: 3711 seconds
#
# Revision: 0
# Processed by: cddbd v1.5.2PL0 Copyright (c) Steve Scherf et al.
# Submitted via: ExactAudioCopy v0.95b4
#
DISCID=f70e7d12
DTITLE=Blues Brothers 2000 - Original Motion Picture Sountrack
DYEAR=1997
DGENRE=Blues
TTITLE0=Born In Chicago - The Paul Butterfield Blues Band
TTITLE1=The Blues Don't Bother Me - Matt "Guitar" Murphy
TTITLE2=Harmonica Musings - John Popper
TTITLE3=Cheaper To Keep Her - Dan Aykroyd, Lonnie Brooks, Junior Wells
TTITLE3=and The Blues Brothers Band
TTITLE4=Perry Mason Theme - The Blues Brothers Band
TTITLE5=Looking For A Fox - John Goodman, Dan Aykroyd and The Blues Br
TTITLE5=others Band
TTITLE6=Can't Turn You Loose - The Blues Brothers Band
TTITLE7=R-E-S-P-E-C-T - Aretha Franklin and The Blues Brothers Band
TTITLE8=634-5789 - Eddie Floyd, Wilson Pickett, Johnny Lang and The Bl
TTITLE8=ues Brothers Band
TTITLE9=Maybe I'm Wrong - Blues Traveller
TTITLE10=Riders In The Sky (A Cowboy Legend) - Dan Aykroyd, John Goodm
TTITLE10=an and The Blues Brothers Band
TTITLE11=John The Revelator - Taj Mahal, Sam Moore, Joe Morton, Sharon
TTITLE11=Riley and The Faith Chorale
TTITLE12=Let There Be Drums - The Carl LaFong Trio
TTITLE13=Season Of The Witch - Dr. John and The Blues Brothers Band
TTITLE14=Funky Nassau - Joe Morton, Dan Aykroyd, John Goodman, Paul Sh
TTITLE14=affer, Erykah Badu and The Blues Brothers Band
TTITLE15=How Blue Can You Get - The Louisianna Gator Boys
TTITLE16=Turn On Your Love Light - Joe Morton, Dan Aykroyd, John Goodm
TTITLE16=an, J. Evan Bonifant and The Blues Brothers Band
TTITLE17=New Orleans - The Louisianna Gator Boys and The Blues Brother
TTITLE17=s Band
EXTD=
EXTT0=
EXTT1=
EXTT2=
EXTT3=
EXTT4=
EXTT5=
EXTT6=
EXTT7=
EXTT8=
EXTT9=
EXTT10=
EXTT11=
EXTT12=
EXTT13=
EXTT14=
EXTT15=
EXTT16=
EXTT17=
PLAYORDER=
